<svg xmlns="http://www.w3.org/2000/svg" viewBox="0 0 512 512" role="img" aria-labelledby="title desc">
  <title id="title">GrainWatch PH icon</title>
  <desc id="desc">A dark rounded square with the GrainWatch PH mark and market bars.</desc>
  <defs>
    <linearGradient id="bg" x1="0%" y1="0%" x2="100%" y2="100%">
      <stop offset="0%" stop-color="#122338" />
      <stop offset="52%" stop-color="#08121c" />
      <stop offset="100%" stop-color="#040a11" />
    </linearGradient>
    <linearGradient id="accent" x1="0%" y1="0%" x2="100%" y2="100%">
      <stop offset="0%" stop-color="#6da7ff" />
      <stop offset="100%" stop-color="#30c48d" />
    </linearGradient>
  </defs>
  <rect width="512" height="512" rx="110" fill="url(#bg)" />
  <rect x="52" y="52" width="408" height="408" rx="90" fill="none" stroke="rgba(255,255,255,0.12)" />
  <rect x="92" y="334" width="58" height="78" rx="20" fill="#243247" />
  <rect x="168" y="292" width="58" height="120" rx="20" fill="#345174" />
  <rect x="244" y="252" width="58" height="160" rx="20" fill="#6da7ff" />
  <rect x="320" y="206" width="58" height="206" rx="20" fill="#30c48d" />
  <path d="M88 152c32-38 72-58 120-58 44 0 79 12 106 36 7 6 15 10 24 10h83v40h-73c-21 0-41-8-57-22-21-19-48-28-81-28-36 0-67 15-95 44l-27-22Z" fill="url(#accent)" opacity=".95" />
  <text x="92" y="124" fill="#eef3fb" font-family="IBM Plex Mono, monospace" font-size="40" letter-spacing="10">GW</text>
</svg>
